<svg version="1.0" xmlns="http://www.w3.org/2000/svg"
 width="1080.000000pt" height="1080.000000pt" viewBox="0 0 1080.000000 1080.000000"
 preserveAspectRatio="xMidYMid meet">

<g transform="translate(0.000000,1080.000000) scale(0.100000,-0.100000)"
fill="#000000" stroke="none">
<path d="M5036 9167 c-39 -39 -30 -75 24 -97 28 -11 34 -11 58 7 50 37 36 97
-25 109 -26 5 -37 1 -57 -19z"/>
<path d="M4601 9031 c-12 -8 -12 -20 3 -81 19 -79 18 -83 -34 -96 -38 -10 -48
-22 -42 -49 4 -23 9 -25 57 -25 52 0 52 0 63 -39 7 -21 12 -51 12 -67 0 -16 5
-45 11 -64 6 -19 17 -69 24 -110 26 -151 41 -193 80 -227 41 -35 112 -50 175
-35 39 9 50 35 30 71 -9 17 -20 21 -65 21 -40 0 -60 5 -73 18 -19 19 -41 93
-62 207 -24 131 -39 211 -45 231 -6 19 -1 22 34 28 71 11 92 26 89 60 -3 33
-10 35 -101 25 -37 -4 -39 -3 -53 36 -7 22 -14 55 -14 73 0 30 -2 32 -37 32
-21 0 -44 -4 -52 -9z"/>
<path d="M5064 8773 c4 -93 13 -213 21 -268 8 -55 15 -131 15 -168 l0 -68 48
3 47 3 -3 95 c-2 52 -10 139 -18 192 -8 54 -14 126 -14 161 0 35 -3 98 -6 140
l-7 77 -45 0 -45 0 7 -167z"/>
<path d="M5478 8910 c-42 -26 -75 -68 -128 -160 -9 -16 -15 -66 -18 -142 -4
-110 -3 -119 23 -175 48 -103 100 -145 204 -167 73 -15 113 -12 192 16 31 11
99 71 126 113 55 83 74 254 38 351 -24 63 -77 129 -134 165 -42 27 -51 29
-150 29 -100 0 -109 -2 -153 -30z m221 -60 c77 -22 141 -126 141 -230 0 -67
-29 -159 -66 -207 -103 -135 -312 -74 -345 101 -26 143 29 289 126 332 36 16
97 18 144 4z"/>
<path d="M6167 8863 c-3 -5 -13 -35 -22 -68 -9 -33 -23 -80 -31 -105 -43 -142
-57 -189 -67 -225 -5 -22 -16 -54 -23 -72 -8 -17 -14 -40 -14 -51 0 -11 -7
-33 -15 -48 -27 -53 -21 -68 36 -84 28 -8 31 -7 45 25 8 19 21 59 29 87 25 90
81 271 94 303 35 85 124 121 221 88 80 -27 103 -65 97 -160 -2 -40 -9 -78 -14
-85 -6 -7 -14 -29 -18 -48 -6 -29 -36 -130 -85 -283 -8 -25 -6 -29 27 -42 20
-8 39 -15 43 -15 10 0 29 39 44 95 8 28 22 75 31 105 9 30 23 76 31 102 61
200 61 278 -3 343 -51 53 -107 77 -178 79 -52 1 -68 -3 -103 -26 -23 -16 -44
-28 -48 -28 -3 0 -3 20 0 44 6 39 4 46 -16 60 -24 17 -54 21 -61 9z"/>
<path d="M4146 8733 c-30 -8 -129 -63 -154 -86 -35 -32 -72 -102 -72 -136 0
-30 2 -31 43 -31 41 0 42 1 69 58 35 73 78 103 163 109 55 5 64 3 92 -21 20
-17 35 -40 39 -62 8 -46 -14 -70 -109 -118 -40 -20 -84 -46 -99 -58 -15 -13
-39 -31 -53 -41 -83 -59 -71 -213 23 -285 32 -25 43 -27 121 -26 75 0 92 4
133 28 54 31 82 63 100 112 14 40 29 39 43 -2 5 -16 10 -31 12 -33 4 -6 83 31
83 38 -1 7 -32 96 -47 131 -6 14 -37 93 -69 175 -82 208 -127 256 -241 254
-32 -1 -67 -4 -77 -6z m244 -322 c0 -10 7 -26 15 -37 8 -10 15 -40 15 -67 0
-59 -33 -116 -92 -154 -34 -23 -52 -28 -104 -28 -71 0 -97 17 -112 70 -15 54
3 91 66 133 31 22 66 42 77 46 11 3 40 21 65 40 46 34 70 33 70 -3z"/>
<path d="M3520 8677 c-36 -13 -50 -38 -31 -61 6 -7 23 -35 37 -62 14 -27 39
-68 55 -92 16 -24 29 -45 29 -48 0 -4 71 -129 107 -189 7 -11 19 -33 28 -50
32 -61 78 -141 106 -183 16 -24 29 -46 29 -49 0 -3 9 -21 21 -39 l20 -34 38
22 c38 22 38 22 25 55 -13 29 -89 166 -114 203 -6 8 -16 26 -23 40 -11 23 -42
74 -75 125 -6 11 -15 27 -19 35 -3 8 -34 62 -67 119 -34 57 -74 126 -89 155
-38 67 -36 66 -77 53z"/>
<path d="M3220 8490 c-11 -11 -20 -24 -20 -28 0 -8 204 -304 230 -334 6 -7 23
-32 38 -54 40 -61 95 -141 147 -214 26 -36 56 -80 67 -97 l20 -33 30 18 c62
36 65 29 -116 282 -41 58 -89 125 -106 150 -117 167 -210 298 -224 313 -21 22
-41 22 -66 -3z"/>
<path d="M3022 8036 c-100 -53 -182 -174 -182 -270 0 -69 8 -78 50 -66 42 12
50 24 50 78 0 52 26 105 74 151 27 27 45 35 84 39 44 4 52 1 85 -28 23 -19 37
-41 37 -55 0 -13 -31 -63 -74 -118 -99 -126 -109 -148 -110 -229 -1 -65 0 -68
38 -107 22 -22 55 -48 74 -57 121 -57 302 68 308 213 1 30 4 56 6 59 3 2 18
-10 35 -26 l30 -29 27 28 c15 16 26 36 24 44 -5 24 -328 353 -369 376 -50 28
-130 27 -187 -3z m314 -248 c41 -44 74 -105 74 -137 0 -27 -38 -107 -63 -134
-25 -27 -57 -45 -100 -58 -56 -16 -127 39 -127 98 0 30 48 115 95 168 25 28
50 62 56 78 6 15 14 27 18 27 4 0 25 -19 47 -42z"/>
<path d="M7905 7993 c-93 -21 -226 -99 -294 -172 -86 -92 -141 -213 -141 -311
0 -142 99 -289 240 -358 105 -51 261 -29 355 51 17 14 43 36 59 50 l29 24
-102 121 c-56 67 -107 124 -112 128 -6 3 -24 -6 -39 -21 l-29 -28 20 -26 c11
-14 38 -44 58 -66 45 -48 64 -82 57 -100 -9 -24 -115 -65 -168 -65 -129 0
-268 145 -268 281 0 106 55 201 172 299 161 135 332 135 449 1 29 -32 51 -71
63 -111 l19 -60 -21 -68 c-28 -86 -28 -95 6 -133 l28 -32 23 39 c37 62 51 112
51 182 0 203 -180 385 -377 381 -32 -1 -67 -3 -78 -6z"/>
<path d="M6945 7962 c-35 -7 -55 -33 -55 -72 0 -44 15 -59 63 -67 30 -5 40 -1
61 22 30 32 32 45 11 84 -14 29 -43 40 -80 33z"/>
<path d="M2625 7613 c-8 -10 -29 -34 -45 -55 l-30 -36 -67 45 -66 44 -23 -28
c-13 -15 -23 -33 -24 -40 0 -6 27 -33 60 -58 l61 -47 -26 -34 c-30 -40 -27
-59 11 -76 24 -11 28 -9 54 22 27 33 29 34 57 20 15 -8 45 -28 65 -45 32 -27
72 -56 231 -170 66 -47 111 -60 161 -44 50 15 126 85 126 115 0 12 -11 29 -26
38 -25 17 -26 16 -65 -18 -50 -46 -89 -48 -145 -7 -73 54 -139 101 -189 136
-27 18 -67 49 -88 67 l-38 33 40 54 c43 57 43 69 0 92 -14 7 -22 5 -34 -8z"/>
<path d="M2395 7155 c-5 -2 -22 -6 -37 -9 -39 -9 -106 -80 -135 -145 -19 -42
-25 -73 -26 -124 0 -60 3 -72 30 -104 43 -54 75 -75 125 -80 64 -7 143 37 195
110 69 95 98 119 146 124 40 5 49 2 71 -22 49 -53 42 -125 -21 -212 -29 -40
-52 -53 -100 -57 -33 -3 -38 -8 -50 -42 -17 -49 -6 -57 65 -49 60 6 99 31 151
95 56 70 78 151 66 245 -5 45 -13 61 -47 94 -22 23 -49 41 -60 41 -11 0 -27 4
-37 9 -21 12 -106 -11 -136 -37 -11 -9 -51 -52 -89 -95 -96 -108 -138 -127
-189 -87 -80 63 -14 239 97 255 40 6 44 10 49 38 2 18 0 38 -5 45 -10 11 -40
15 -63 7z"/>
<path d="M8215 7128 c-121 -40 -220 -114 -266 -202 -33 -63 -31 -183 5 -254
41 -80 99 -138 162 -162 79 -29 104 -27 104 8 0 40 -23 67 -68 80 -22 7 -56
30 -77 51 -77 79 -85 187 -21 274 24 32 81 71 94 63 5 -3 35 -58 66 -123 32
-65 61 -125 66 -133 6 -8 16 -28 23 -45 47 -102 61 -125 74 -125 20 0 112 60
151 99 58 58 77 106 76 191 -1 96 -26 152 -97 217 -41 37 -66 51 -108 61 -63
14 -141 14 -184 0z m200 -101 c21 -12 53 -42 70 -65 26 -37 30 -53 30 -106 0
-52 -5 -69 -27 -102 -15 -22 -41 -47 -57 -57 -28 -16 -29 -16 -43 6 -45 72
-159 319 -155 332 10 25 132 20 182 -8z"/>
<path d="M8692 6554 c-22 -15 -22 -23 -6 -86 4 -12 -4 -20 -28 -27 -18 -5 -46
-14 -63 -19 -16 -6 -55 -17 -85 -26 -30 -8 -86 -24 -124 -36 -38 -11 -75 -20
-81 -20 -23 0 -99 -46 -118 -73 -16 -20 -20 -42 -20 -99 0 -109 23 -140 75
-99 22 18 24 26 20 73 -6 80 3 86 243 153 28 8 83 24 123 36 89 28 104 22 115
-47 10 -62 18 -70 56 -54 30 12 40 36 22 56 -5 5 -11 28 -14 51 l-5 42 71 23
72 23 -3 35 c-5 50 -15 56 -65 41 -23 -7 -56 -15 -73 -18 -29 -4 -32 -2 -48
41 -19 50 -29 55 -64 30z"/>
<path d="M2124 6511 c-58 -10 -97 -42 -130 -107 -43 -85 -41 -161 5 -228 l33
-48 -50 7 c-55 7 -56 6 -66 -47 -6 -35 -5 -37 26 -42 18 -4 56 -13 83 -21 28
-8 88 -24 135 -36 47 -12 104 -28 128 -36 23 -7 52 -13 63 -13 11 0 29 -5 39
-10 11 -6 51 -16 90 -24 l72 -13 9 24 c20 54 6 69 -84 90 -174 41 -308 78
-342 95 -123 65 -122 243 2 307 33 17 94 13 165 -9 34 -11 71 -20 82 -20 10 0
39 -7 65 -15 110 -35 193 -57 204 -52 14 5 42 76 33 84 -3 3 -22 9 -43 14 -21
4 -72 18 -113 30 -41 11 -97 25 -125 31 -27 6 -58 14 -68 19 -15 8 -152 30
-167 27 -3 0 -23 -3 -46 -7z"/>
<path d="M1649 5801 c-1 -17 -2 -37 -3 -43 -3 -32 63 -41 524 -78 69 -6 171
-17 226 -25 137 -20 130 -21 138 26 4 23 5 44 2 46 -12 13 -142 34 -259 42
-72 6 -166 15 -207 20 -41 5 -133 15 -205 22 -71 6 -149 14 -172 16 -42 5 -43
4 -44 -26z"/>
<path d="M8365 5680 c-53 -24 -79 -54 -104 -118 -38 -97 -20 -186 51 -259 l42
-43 -41 0 c-39 0 -41 -2 -47 -36 -12 -64 -11 -64 248 -64 127 0 248 5 270 9
38 9 103 54 117 81 36 72 41 95 36 179 -5 96 -25 147 -78 199 -32 31 -66 49
-75 39 -3 -2 -7 -21 -11 -40 -5 -31 -1 -42 31 -78 41 -48 50 -84 44 -170 -3
-47 -10 -65 -29 -85 -27 -26 -83 -40 -123 -30 -28 7 -41 52 -56 194 -12 115
-49 189 -110 220 -54 27 -111 28 -165 2z m141 -103 c29 -26 64 -120 64 -177 0
-20 6 -59 14 -88 l13 -52 -70 0 c-91 0 -142 28 -176 95 -19 38 -22 58 -19 111
3 56 8 68 38 99 42 43 94 48 136 12z"/>
<path d="M2459 5203 c-31 -32 -91 -98 -134 -148 -44 -49 -94 -105 -112 -124
l-33 -33 -43 31 c-23 17 -73 54 -112 81 -38 27 -89 63 -112 80 -23 16 -45 30
-48 30 -7 0 -6 -49 1 -77 5 -19 84 -88 134 -118 61 -35 220 -158 213 -164 -14
-13 -85 -29 -153 -36 -36 -4 -92 -13 -125 -20 -33 -7 -89 -16 -123 -20 -110
-11 -126 -24 -100 -80 11 -24 14 -25 77 -19 36 4 86 10 111 15 25 5 88 16 140
24 52 7 120 18 150 24 77 15 173 30 255 41 158 21 161 22 149 87 -6 29 -10 34
-28 29 -11 -4 -64 -11 -116 -17 -52 -6 -96 -12 -99 -14 -6 -7 -55 22 -75 44
-11 12 -16 24 -12 29 25 23 218 232 240 258 26 32 31 66 17 127 l-6 28 -56
-58z"/>
<path d="M8357 4660 c-143 -18 -256 -126 -300 -286 -9 -33 -17 -74 -17 -90 0
-29 -4 -32 -61 -50 -55 -17 -63 -23 -79 -59 -10 -22 -16 -43 -13 -47 6 -12 35
-9 64 5 14 8 44 17 67 21 l42 6 29 -52 c61 -108 179 -193 329 -238 60 -18 91
-22 172 -18 60 2 105 9 112 16 7 7 19 12 28 12 32 0 134 87 168 144 38 62 52
107 59 186 5 58 -12 155 -32 180 -7 8 -16 25 -19 36 -4 12 -35 49 -71 83 -65
63 -164 118 -250 139 -60 15 -163 20 -228 12z m244 -120 c160 -63 228 -129
259 -256 12 -45 11 -60 -6 -125 -16 -60 -27 -80 -64 -119 -67 -69 -119 -90
-218 -90 -85 0 -163 20 -246 62 -48 25 -151 126 -159 157 -6 24 11 34 103 62
39 12 47 19 58 53 14 43 4 68 -20 49 -7 -6 -32 -14 -55 -18 -24 -4 -45 -11
-49 -16 -3 -5 -18 -9 -35 -9 -36 0 -37 17 -10 90 36 94 109 164 191 181 59 13
191 2 251 -21z"/>
<path d="M2445 4563 c4 -10 12 -30 17 -45 7 -20 17 -28 34 -28 65 0 130 -62
155 -148 43 -148 -173 -314 -356 -273 -126 28 -196 183 -125 274 31 39 25 117
-9 117 -21 0 -63 -43 -85 -87 -24 -48 -22 -172 5 -231 41 -91 108 -146 205
-166 61 -13 78 -13 144 1 41 8 101 29 133 46 71 37 149 120 165 175 57 189
-65 382 -240 382 -44 0 -49 -2 -43 -17z"/>
<path d="M2820 4030 c-14 -10 -95 -63 -180 -118 -186 -120 -204 -134 -241
-185 -59 -81 -30 -205 72 -312 23 -24 57 -51 75 -60 34 -16 128 -24 140 -12 4
4 1 24 -6 46 -11 36 -16 39 -57 45 -115 16 -200 155 -145 239 24 35 52 56 76
57 11 0 68 -51 140 -125 l122 -125 68 0 c81 0 128 22 166 77 21 31 25 48 25
114 -1 71 -3 80 -37 131 -40 60 -98 101 -162 112 l-40 8 32 20 c38 24 40 38
10 78 -25 35 -25 35 -58 10z m103 -218 c29 -28 47 -57 55 -87 18 -68 15 -84
-22 -121 -58 -58 -125 -41 -201 52 -21 25 -57 65 -81 88 -44 44 -45 53 -4 74
14 7 36 20 50 28 17 10 45 14 92 12 64 -3 70 -6 111 -46z"/>
<path d="M7845 3889 c-23 -12 -57 -43 -78 -71 -34 -47 -37 -55 -37 -120 0 -38
5 -78 11 -90 16 -30 6 -31 -42 -3 -24 13 -47 25 -51 25 -8 0 -52 -70 -47 -74
2 -2 29 -20 59 -41 30 -22 81 -57 113 -79 32 -23 99 -69 150 -103 51 -34 97
-66 102 -70 37 -30 116 -83 123 -83 7 0 52 62 52 72 0 3 -26 23 -57 45 -32 21
-83 57 -113 78 -30 21 -82 57 -114 79 -32 23 -73 58 -90 79 -27 34 -31 46 -31
101 0 53 4 68 28 99 49 64 116 85 182 55 31 -13 144 -88 270 -178 110 -78 113
-79 141 -47 39 45 48 36 -266 250 -52 36 -109 72 -127 81 -44 22 -128 20 -178
-5z"/>
<path d="M3145 3553 c-3 -16 -10 -41 -16 -58 -6 -16 -23 -79 -39 -140 -42
-164 -44 -168 -81 -160 -59 13 -137 6 -179 -15 -52 -26 -113 -88 -140 -139
-28 -55 -28 -176 -1 -229 11 -20 83 -100 159 -176 l140 -139 204 209 c323 331
402 415 412 432 7 11 1 23 -23 44 -17 15 -35 28 -40 28 -5 0 -61 -54 -124
-120 -63 -66 -118 -120 -123 -120 -14 0 -162 152 -159 164 3 11 21 77 49 176
9 30 25 86 36 124 l20 70 -37 38 c-20 21 -41 38 -45 38 -4 0 -10 -12 -13 -27z
m-135 -464 c43 -19 210 -173 210 -193 0 -15 -225 -256 -239 -256 -13 0 -203
195 -212 218 -24 62 -3 135 54 190 67 65 113 75 187 41z"/>
<path d="M7450 3380 c-55 -13 -127 -58 -157 -98 -61 -80 -68 -101 -67 -192 0
-73 4 -93 29 -140 34 -66 114 -153 170 -185 22 -13 68 -31 103 -41 59 -16 67
-16 122 -1 57 16 134 60 161 93 39 47 71 121 77 175 15 151 -153 360 -311 388
-71 12 -78 12 -127 1z m125 -97 c70 -24 173 -128 203 -206 12 -33 22 -72 22
-87 0 -28 -28 -87 -59 -124 -22 -26 -105 -66 -137 -66 -40 0 -144 54 -190 98
-67 65 -96 125 -96 204 -1 90 32 139 117 179 50 23 78 24 140 2z"/>
<path d="M6843 2943 c-63 -32 -71 -48 -42 -80 26 -26 46 -29 73 -8 23 17 59
19 86 5 19 -10 72 -80 100 -132 8 -15 44 -73 79 -128 35 -55 64 -108 65 -117
0 -9 -15 -27 -34 -39 -66 -44 -71 -51 -52 -85 10 -16 20 -29 23 -29 4 0 30 16
59 35 29 19 55 35 59 35 3 0 24 -29 46 -65 22 -35 44 -65 48 -65 16 0 67 41
67 55 0 7 -16 37 -35 66 -19 30 -35 56 -35 60 0 3 18 19 40 34 33 23 38 30 29
46 -18 34 -43 40 -78 18 -17 -10 -34 -19 -36 -19 -3 0 -30 39 -61 88 -31 48
-64 98 -73 112 -9 14 -18 30 -21 36 -18 38 -106 162 -126 177 -14 10 -48 21
-77 23 -43 4 -61 0 -104 -23z"/>
<path d="M6502 2773 c-111 -22 -188 -81 -229 -172 -22 -50 -28 -99 -10 -93 4
1 22 2 40 2 30 0 35 5 62 63 28 57 35 64 95 94 76 38 110 41 173 13 48 -21
117 -94 117 -123 0 -15 -69 -57 -93 -57 -8 0 -147 -56 -212 -85 -16 -7 -51
-23 -78 -34 -26 -11 -50 -26 -53 -34 -7 -20 39 -106 87 -161 61 -69 108 -90
200 -90 68 0 83 4 139 35 111 61 156 151 147 294 -4 63 -12 95 -37 149 -76
161 -197 230 -348 199z m294 -339 c9 -35 0 -114 -17 -149 -21 -43 -90 -91
-143 -99 -63 -10 -115 7 -158 51 -55 58 -57 76 -7 99 78 34 294 122 306 123 7
0 16 -10 19 -25z"/>
<path d="M4311 2678 c-14 -29 -46 -99 -73 -156 -26 -56 -48 -106 -48 -111 0
-5 -6 -14 -14 -20 -12 -10 -30 -6 -88 20 -129 56 -202 89 -232 106 -29 16 -30
15 -53 -11 -32 -38 -29 -55 14 -72 20 -9 79 -36 131 -60 51 -24 97 -44 102
-44 5 0 24 -9 43 -20 34 -20 40 -44 17 -75 -4 -5 -29 -58 -55 -117 -26 -60
-51 -108 -55 -108 -4 0 -38 14 -76 31 -97 44 -191 86 -249 114 -57 26 -81 20
-91 -22 -5 -20 -2 -30 17 -44 13 -10 28 -19 32 -19 5 0 46 -18 93 -40 47 -22
88 -40 91 -40 4 0 53 -22 110 -50 57 -27 111 -50 121 -50 11 0 25 17 39 48 27
61 59 131 95 212 31 70 49 107 96 210 106 227 142 310 142 326 0 17 -39 44
-65 44 -15 0 -27 -14 -44 -52z"/>
<path d="M4486 2608 c3 -29 10 -78 16 -108 6 -30 16 -93 23 -140 7 -47 18
-110 23 -140 16 -78 32 -184 42 -265 5 -38 14 -90 19 -115 6 -25 13 -61 16
-80 5 -33 9 -36 53 -47 32 -7 51 -8 60 -1 7 6 44 65 83 132 39 66 79 132 88
146 24 34 262 431 282 469 9 17 22 37 28 45 7 8 8 17 3 20 -11 7 -101 11 -105
5 -2 -2 -29 -47 -60 -99 -31 -52 -60 -100 -64 -107 -7 -9 -26 -9 -88 2 -158
27 -211 37 -246 46 l-35 9 -18 102 c-9 57 -19 117 -22 135 -5 34 -19 43 -69
43 l-34 0 5 -52z m249 -343 c72 -10 195 -40 195 -47 0 -7 -177 -311 -202 -347
-10 -14 -21 -22 -24 -18 -4 4 -13 48 -20 99 -7 51 -20 140 -28 198 -20 139
-21 133 12 126 15 -3 45 -8 67 -11z"/>
<path d="M5680 2550 c-22 -22 -26 -70 -10 -101 12 -21 77 -27 111 -9 29 16 27
93 -3 114 -31 22 -74 20 -98 -4z"/>
</g>
</svg>
